# xmcd CD database file
#
# Track frame offsets:
#	150
#	77543
#	90632
#	111160
#	120300
#	136280
#	151905
#	180232
#	241550
#
# Disc length: 4131 seconds
#
# Revision: 1
# Processed by: cddbd v1.5.2PL0 Copyright (c) Steve Scherf et al.
# Submitted via: CDex 1.51
#
DISCID=58102109
DTITLE=Evgeny Svetlanov - Evgeny Svetlanov - Vol.09
DYEAR=1900
DGENRE=Classique
TTITLE0=Siberian Fantasy  [USSR State TV and Radio Symphony Orchestra - 1963]
TTITLE1=Preludes (Symphonic Reflections) - I. Andante  [USSR State Symphony Orchestra - 1970]
TTITLE2=Preludes (Symphonic Reflections) - II. Largo
TTITLE3=Preludes (Symphonic Reflections) - III. Vivo
TTITLE4=Preludes (Symphonic Reflections) - IV. Lento
TTITLE5=Preludes (Symphonic Reflections) - V. Adagio Recitando
TTITLE6=Preludes (Symphonic Reflections) - VI. Vivo
TTITLE7=Festive Poem Op.9  [Grand Symphony Orchestra of TV and Radio - 1966]
TTITLE8=Daugava  [Grand Symphony Orchestra of TV and Radio - 1976]
EXTD=
EXTT0=
EXTT1=
EXTT2=
EXTT3=
EXTT4=
EXTT5=
EXTT6=
EXTT7=
EXTT8=
PLAYORDER=
